<svg width="45" height="45" viewBox="0 0 45 45" fill="none" xmlns="http://www.w3.org/2000/svg">
<path fill-rule="evenodd" clip-rule="evenodd" d="M22.1797 10.3086H40.2712V18.9226H22.1797V10.3086Z" fill="#89BCD9"/>
<path fill-rule="evenodd" clip-rule="evenodd" d="M5.8075 38.432C4.21415 38.432 2.82606 37.4117 2.08087 35.8984C1.7004 36.6678 1.49998 37.5419 1.5 38.432C1.5 41.2305 3.42847 43.499 5.8075 43.499H10.115V38.432H5.8075Z" fill="#89BCD9"/>
<path fill-rule="evenodd" clip-rule="evenodd" d="M25.1855 11.6721L40.266 10.5634V8.02986C40.266 5.23132 38.3375 2.9628 35.9585 2.9628H16.5748L16.0363 1.86578C15.7968 1.37807 15.1987 1.37807 14.9595 1.86578L14.421 2.9628L13.8826 1.86578C13.6433 1.37807 13.045 1.37807 12.8057 1.86578L12.2673 2.9628L11.7288 1.86578C11.4895 1.37807 10.8912 1.37807 10.652 1.86578L10.1135 2.9628C10.1088 2.9628 10.1045 2.96356 10.0995 2.96356L9.20744 1.91442C8.8693 1.5164 8.29166 1.69831 8.16761 2.24226L7.87276 3.53537L6.75453 3.18271C6.29191 3.03703 5.86913 3.53461 5.99318 4.07856L6.29255 5.39423L5.19371 5.74056C4.73108 5.88649 4.57623 6.56624 4.91458 6.96425L5.80667 8.01364C5.80667 8.01896 5.80602 8.02428 5.80602 8.02986L4.87345 8.66324C4.45885 8.94471 4.45885 9.64853 4.87345 9.93L5.80602 10.5634L4.87345 11.1968C4.45885 11.4782 4.45885 12.1821 4.87345 12.4635L5.80602 13.0969L4.87345 13.7303C4.45885 14.0118 4.45885 14.7156 4.87345 14.9971L5.80602 15.6304L4.87345 16.2638C4.45885 16.5453 4.45885 17.2491 4.87345 17.5306L5.80602 18.164L4.87345 18.7974C4.45885 19.0788 4.45885 19.7826 4.87345 20.0641L5.80602 20.6975L4.87345 21.3309C4.45885 21.6124 4.45885 22.3162 4.87345 22.5977L5.80602 23.231L4.87345 23.8644C4.45885 24.1459 4.45885 24.8497 4.87345 25.1312L5.80602 25.7646L4.87345 26.3979C4.45885 26.6794 4.45885 27.3832 4.87345 27.6647L5.80602 28.2981L4.87345 28.9315C4.45885 29.213 4.45885 29.9168 4.87345 30.1982L5.80602 30.8316L4.87345 31.465C4.45885 31.7465 4.45885 32.4503 4.87345 32.7318L5.80602 33.3652L4.87345 33.9985C4.45885 34.28 4.45885 34.9838 4.87345 35.2653L5.80602 35.8987L4.87345 36.5321C4.45885 36.8135 4.45885 37.5174 4.87345 37.7988L5.80602 38.4322C5.80602 41.2307 7.73449 43.4993 10.1135 43.4993H35.9585C38.3375 43.4993 40.266 41.2307 40.266 38.4322V18.164L25.1855 17.0553C24.6033 17.0124 24.057 16.7102 23.6577 16.2101C23.2583 15.7101 23.036 15.0498 23.036 14.3637C23.036 12.9396 23.9772 11.761 25.1855 11.6721Z" fill="#89BCD9"/>
<path fill-rule="evenodd" clip-rule="evenodd" d="M31.6562 43.5013H38.1175V33.3672H31.6562V43.5013Z" fill="#89BCD9"/>
<path fill-rule="evenodd" clip-rule="evenodd" d="M33.8047 28.2975H40.2659V23.2305H33.8047V28.2975Z" fill="#89BCD9"/>
<path fill-rule="evenodd" clip-rule="evenodd" d="M14.4241 11.1948C14.2813 11.1948 14.1443 11.1281 14.0433 11.0093C13.9423 10.8905 13.8856 10.7294 13.8856 10.5614C13.8856 9.51358 13.1611 8.6613 12.2703 8.6613C11.3795 8.6613 10.655 9.51358 10.655 10.5614C10.655 10.7294 10.5983 10.8905 10.4973 11.0093C10.3963 11.1281 10.2594 11.1948 10.1166 11.1948C9.97376 11.1948 9.83681 11.1281 9.73583 11.0093C9.63485 10.8905 9.57812 10.7294 9.57812 10.5614C9.57812 8.81508 10.7857 7.39453 12.2703 7.39453C13.7549 7.39453 14.9625 8.81508 14.9625 10.5614C14.9625 10.7294 14.9058 10.8905 14.8048 11.0093C14.7038 11.1281 14.5669 11.1948 14.4241 11.1948Z" fill="black"/>
<path fill-rule="evenodd" clip-rule="evenodd" d="M37.042 28.5499H26.2646C26.2075 28.5499 26.1527 28.5232 26.1124 28.4757C26.072 28.4282 26.0493 28.3638 26.0493 28.2966C26.0493 28.2294 26.072 28.1649 26.1124 28.1174C26.1527 28.0699 26.2075 28.0432 26.2646 28.0432H37.042C37.0991 28.0432 37.1539 28.0699 37.1943 28.1174C37.2347 28.1649 37.2574 28.2294 37.2574 28.2966C37.2574 28.3638 37.2347 28.4282 37.1943 28.4757C37.1539 28.5232 37.0991 28.5499 37.042 28.5499ZM37.042 33.617H26.2646C26.2075 33.617 26.1527 33.5903 26.1124 33.5428C26.072 33.4953 26.0493 33.4308 26.0493 33.3636C26.0493 33.2964 26.072 33.232 26.1124 33.1845C26.1527 33.137 26.2075 33.1103 26.2646 33.1103H37.042C37.0991 33.1103 37.1539 33.137 37.1943 33.1845C37.2347 33.232 37.2574 33.2964 37.2574 33.3636C37.2574 33.4308 37.2347 33.4953 37.1943 33.5428C37.1539 33.5903 37.0991 33.617 37.042 33.617ZM37.042 38.684H26.2646C26.2075 38.684 26.1527 38.6573 26.1124 38.6098C26.072 38.5623 26.0493 38.4979 26.0493 38.4307C26.0493 38.3635 26.072 38.299 26.1124 38.2515C26.1527 38.204 26.2075 38.1773 26.2646 38.1773H37.042C37.0991 38.1773 37.1539 38.204 37.1943 38.2515C37.2347 38.299 37.2574 38.3635 37.2574 38.4307C37.2574 38.4979 37.2347 38.5623 37.1943 38.6098C37.1539 38.6573 37.0991 38.684 37.042 38.684ZM37.042 26.0635H26.2646C26.2075 26.0635 26.1527 26.0368 26.1124 25.9893C26.072 25.9418 26.0493 25.8774 26.0493 25.8102C26.0493 25.743 26.072 25.6785 26.1124 25.631C26.1527 25.5835 26.2075 25.5568 26.2646 25.5568H37.042C37.0991 25.5568 37.1539 25.5835 37.1943 25.631C37.2347 25.6785 37.2574 25.743 37.2574 25.8102C37.2574 25.8774 37.2347 25.9418 37.1943 25.9893C37.1539 26.0368 37.0991 26.0635 37.042 26.0635ZM37.042 31.0834H26.2646C26.2075 31.0834 26.1527 31.0568 26.1124 31.0092C26.072 30.9617 26.0493 30.8973 26.0493 30.8301C26.0493 30.7629 26.072 30.6985 26.1124 30.6509C26.1527 30.6034 26.2075 30.5767 26.2646 30.5767H37.042C37.0991 30.5767 37.1539 30.6034 37.1943 30.6509C37.2347 30.6985 37.2574 30.7629 37.2574 30.8301C37.2574 30.8973 37.2347 30.9617 37.1943 31.0092C37.1539 31.0568 37.0991 31.0834 37.042 31.0834ZM37.042 36.1505H26.2646C26.2075 36.1505 26.1527 36.1238 26.1124 36.0763C26.072 36.0288 26.0493 35.9643 26.0493 35.8972C26.0493 35.83 26.072 35.7655 26.1124 35.718C26.1527 35.6705 26.2075 35.6438 26.2646 35.6438H37.042C37.0991 35.6438 37.1539 35.6705 37.1943 35.718C37.2347 35.7655 37.2574 35.83 37.2574 35.8972C37.2574 35.9643 37.2347 36.0288 37.1943 36.0763C37.1539 36.1238 37.0991 36.1505 37.042 36.1505ZM40.2683 12.7435C40.2657 12.7435 40.2636 12.742 40.261 12.7422C39.5955 12.7688 39.2806 13.5519 39.0028 14.2428C38.7129 14.9649 38.4887 15.4343 38.1212 15.4202C37.7144 15.4029 37.4818 14.8623 37.2354 14.2902C36.9524 13.633 36.6293 12.8876 35.9511 12.9155C35.2951 12.9419 34.9791 13.6234 34.7004 14.2246C34.4039 14.8651 34.2021 15.2545 33.8129 15.2365C33.3979 15.2187 33.1773 14.7792 32.9221 14.2704C32.6376 13.7039 32.3087 13.067 31.6436 13.0888C30.9988 13.1149 30.682 13.693 30.4024 14.2036C30.1067 14.7432 29.8995 15.072 29.5054 15.0525C29.0805 15.0348 28.861 14.67 28.6071 14.2476C28.3219 13.7731 28.0006 13.236 27.3374 13.2621C26.7068 13.2874 26.39 13.7612 26.1107 14.1787C25.8453 14.575 25.6381 14.8886 25.1998 14.8689C25.1427 14.8664 25.0871 14.8908 25.0453 14.9366C25.0034 14.9824 24.9788 15.0459 24.9767 15.1131C24.9746 15.1803 24.9954 15.2457 25.0343 15.2949C25.0732 15.3441 25.1272 15.3731 25.1843 15.3756C25.8341 15.4012 26.1632 14.9195 26.449 14.4921C26.7025 14.1131 26.9213 13.786 27.3521 13.7688C27.7669 13.748 27.9614 14.0513 28.2556 14.5403C28.5349 15.0049 28.8519 15.5319 29.4899 15.559C30.1582 15.5853 30.4797 14.9978 30.7645 14.4779C31.019 14.0133 31.2387 13.6122 31.6583 13.5953C32.0444 13.5783 32.2546 13.9373 32.551 14.5278C32.8303 15.0845 33.1467 15.7151 33.7974 15.7429C34.4704 15.7703 34.7954 15.0791 35.0786 14.4673C35.324 13.9383 35.5555 13.4387 35.9658 13.422C36.3519 13.4113 36.5533 13.8261 36.8512 14.519C37.1294 15.1658 37.445 15.8985 38.1057 15.9266L38.1421 15.9274C38.802 15.9274 39.1152 15.1483 39.3924 14.4594C39.6377 13.8489 39.8699 13.2738 40.2683 13.2502V12.7435Z" fill="black"/>
<path fill-rule="evenodd" clip-rule="evenodd" d="M18.7344 43.5013H27.3494V33.3672H18.7344V43.5013Z" fill="#89BCD9"/>
<path d="M40.2144 17.206L23.4629 22.486C23.2332 22.5585 23.0968 22.8363 23.1584 23.1066L24.7954 30.2933C24.8569 30.5636 25.0931 30.7241 25.3229 30.6516L42.0744 25.3716C42.3042 25.2992 42.4406 25.0213 42.379 24.751L40.742 17.5643C40.6804 17.294 40.4442 17.1336 40.2144 17.206Z" fill="#1C1C1C"/>
<path d="M28.5187 26.4212L27.919 26.6102C27.8041 26.6464 27.7359 26.7853 27.7667 26.9205L27.9274 27.626C27.9582 27.7612 28.0763 27.8414 28.1912 27.8052L28.7909 27.6161C28.9058 27.5799 28.974 27.441 28.9432 27.3058L28.7825 26.6003C28.7517 26.4652 28.6336 26.3849 28.5187 26.4212Z" fill="white"/>
<path d="M29.7219 26.0384L29.1221 26.2274C29.0072 26.2636 28.939 26.4025 28.9698 26.5377L29.1305 27.2432C29.1613 27.3784 29.2794 27.4586 29.3943 27.4224L29.9941 27.2333C30.109 27.1971 30.1771 27.0582 30.1464 26.923L29.9856 26.2175C29.9549 26.0823 29.8368 26.0021 29.7219 26.0384Z" fill="white"/>
<path d="M30.925 25.6594L30.3252 25.8485C30.2103 25.8847 30.1421 26.0236 30.1729 26.1588L30.3336 26.8643C30.3644 26.9995 30.4825 27.0797 30.5974 27.0435L31.1972 26.8544C31.3121 26.8182 31.3803 26.6793 31.3495 26.5441L31.1888 25.8386C31.158 25.7034 31.0399 25.6232 30.925 25.6594Z" fill="white"/>
<path d="M32.1281 25.2805L31.5283 25.4696C31.4135 25.5058 31.3453 25.6447 31.3761 25.7799L31.5368 26.4854C31.5675 26.6206 31.6856 26.7008 31.8005 26.6646L32.4003 26.4755C32.5152 26.4393 32.5834 26.3004 32.5526 26.1652L32.3919 25.4597C32.3611 25.3245 32.243 25.2443 32.1281 25.2805Z" fill="white"/>
<path d="M33.3312 24.9016L32.7315 25.0907C32.6166 25.1269 32.5484 25.2658 32.5792 25.401L32.7399 26.1065C32.7707 26.2417 32.8888 26.3219 33.0037 26.2856L33.6034 26.0966C33.7183 26.0604 33.7865 25.9215 33.7557 25.7863L33.595 25.0808C33.5642 24.9456 33.4461 24.8654 33.3312 24.9016Z" fill="white"/>
<path d="M34.5422 24.5227L33.9424 24.7118C33.8275 24.748 33.7593 24.8869 33.7901 25.0221L33.9508 25.7276C33.9816 25.8627 34.0997 25.943 34.2146 25.9067L34.8144 25.7177C34.9293 25.6815 34.9975 25.5426 34.9667 25.4074L34.806 24.7019C34.7752 24.5667 34.6571 24.4865 34.5422 24.5227Z" fill="white"/>
<path d="M35.7453 24.1438L35.1455 24.3329C35.0306 24.3691 34.9625 24.508 34.9932 24.6432L35.154 25.3487C35.1847 25.4838 35.3028 25.564 35.4177 25.5278L36.0175 25.3388C36.1324 25.3026 36.2006 25.1637 36.1698 25.0285L36.0091 24.323C35.9783 24.1878 35.8602 24.1076 35.7453 24.1438Z" fill="white"/>
<path d="M36.9484 23.761L36.3487 23.9501C36.2338 23.9863 36.1656 24.1252 36.1964 24.2603L36.3571 24.9659C36.3879 25.101 36.506 25.1812 36.6209 25.145L37.2206 24.956C37.3355 24.9198 37.4037 24.7808 37.3729 24.6457L37.2122 23.9402C37.1814 23.805 37.0633 23.7248 36.9484 23.761Z" fill="white"/>
<path d="M38.1516 23.3821L37.5518 23.5711C37.4369 23.6074 37.3687 23.7463 37.3995 23.8814L37.5602 24.587C37.591 24.7221 37.7091 24.8023 37.824 24.7661L38.4237 24.5771C38.5386 24.5409 38.6068 24.4019 38.576 24.2668L38.4153 23.5612C38.3845 23.4261 38.2665 23.3459 38.1516 23.3821Z" fill="white"/>
<path fill-rule="evenodd" clip-rule="evenodd" d="M24.7159 27.6144L27.2718 26.8087C27.327 26.7913 27.3858 26.8004 27.4353 26.834C27.4847 26.8676 27.5208 26.923 27.5356 26.9879L27.6963 27.6932C27.7111 27.7581 27.7033 27.8272 27.6748 27.8854C27.6462 27.9436 27.5991 27.9861 27.544 28.0035L24.988 28.8091C24.9329 28.8265 24.8741 28.8174 24.8246 28.7838C24.7751 28.7502 24.739 28.6948 24.7243 28.6299L24.5636 27.9244C24.5488 27.8595 24.5565 27.7903 24.5851 27.7322C24.6136 27.674 24.6607 27.6315 24.7158 27.6141L24.7159 27.6144ZM38.7862 23.1794L41.3424 22.3737C41.3975 22.3563 41.4563 22.3654 41.5058 22.399C41.5553 22.4326 41.5914 22.488 41.6061 22.5529L41.7668 23.2582C41.7816 23.3231 41.7738 23.3922 41.7453 23.4504C41.7167 23.5086 41.6697 23.5511 41.6145 23.5685L39.0582 24.3742C39.003 24.3916 38.9442 24.3825 38.8947 24.3489C38.8453 24.3153 38.8092 24.26 38.7944 24.1951L38.6337 23.4895C38.6189 23.4246 38.6266 23.3555 38.6552 23.2973C38.6837 23.2391 38.7308 23.1966 38.786 23.1792L38.7862 23.1794Z" fill="white"/>
<path fill-rule="evenodd" clip-rule="evenodd" d="M24.0674 24.7547L25.0431 24.4472C25.0983 24.4298 25.1571 24.4389 25.2065 24.4725C25.256 24.5061 25.2921 24.5614 25.3069 24.6264L25.4675 25.3316C25.4823 25.3965 25.4746 25.4657 25.446 25.5239C25.4175 25.5821 25.3704 25.6245 25.3152 25.6419L24.3395 25.9495C24.2844 25.9669 24.2256 25.9578 24.1761 25.9242C24.1267 25.8906 24.0906 25.8352 24.0758 25.7703L23.9151 25.065C23.9003 25.0001 23.9081 24.931 23.9366 24.8728C23.9652 24.8146 24.0122 24.7721 24.0674 24.7547Z" fill="white"/>
<path d="M26.2453 24.0696L25.6455 24.2586C25.5306 24.2949 25.4625 24.4338 25.4932 24.5689L25.654 25.2745C25.6847 25.4096 25.8028 25.4898 25.9177 25.4536L26.5175 25.2646C26.6324 25.2284 26.7006 25.0894 26.6698 24.9543L26.5091 24.2487C26.4783 24.1136 26.3602 24.0334 26.2453 24.0696Z" fill="white"/>
<path d="M27.4484 23.6907L26.8487 23.8797C26.7338 23.916 26.6656 24.0549 26.6964 24.19L26.8571 24.8956C26.8879 25.0307 27.006 25.1109 27.1209 25.0747L27.7206 24.8857C27.8355 24.8494 27.9037 24.7105 27.8729 24.5754L27.7122 23.8698C27.6814 23.7347 27.5633 23.6545 27.4484 23.6907Z" fill="white"/>
<path d="M28.6516 23.3118L28.0518 23.5008C27.9369 23.537 27.8687 23.676 27.8995 23.8111L28.0602 24.5167C28.091 24.6518 28.2091 24.732 28.324 24.6958L28.9237 24.5068C29.0386 24.4705 29.1068 24.3316 29.076 24.1965L28.9153 23.4909C28.8845 23.3558 28.7664 23.2756 28.6516 23.3118Z" fill="white"/>
<path d="M29.8547 22.9329L29.2549 23.1219C29.14 23.1581 29.0718 23.2971 29.1026 23.4322L29.2633 24.1377C29.2941 24.2729 29.4122 24.3531 29.5271 24.3169L30.1269 24.1279C30.2418 24.0916 30.31 23.9527 30.2792 23.8176L30.1185 23.112C30.0877 22.9769 29.9696 22.8967 29.8547 22.9329Z" fill="white"/>
<path d="M31.0656 22.5501L30.4658 22.7391C30.351 22.7753 30.2828 22.9143 30.3136 23.0494L30.4743 23.7549C30.505 23.8901 30.6231 23.9703 30.738 23.9341L31.3378 23.745C31.4527 23.7088 31.5209 23.5699 31.4901 23.4347L31.3294 22.7292C31.2986 22.5941 31.1805 22.5139 31.0656 22.5501Z" fill="white"/>
<path d="M32.2687 22.1712L31.669 22.3602C31.5541 22.3964 31.4859 22.5353 31.5167 22.6705L31.6774 23.376C31.7082 23.5112 31.8263 23.5914 31.9412 23.5552L32.5409 23.3661C32.6558 23.3299 32.724 23.191 32.6932 23.0558L32.5325 22.3503C32.5017 22.2152 32.3836 22.1349 32.2687 22.1712Z" fill="white"/>
<path d="M33.4719 21.7923L32.8721 21.9813C32.7572 22.0175 32.689 22.1564 32.7198 22.2916L32.8805 22.9971C32.9113 23.1323 33.0294 23.2125 33.1443 23.1763L33.7441 22.9872C33.859 22.951 33.9271 22.8121 33.8964 22.6769L33.7356 21.9714C33.7049 21.8362 33.5868 21.756 33.4719 21.7923Z" fill="white"/>
<path d="M34.675 21.4134L34.0752 21.6024C33.9603 21.6386 33.8921 21.7775 33.9229 21.9127L34.0836 22.6182C34.1144 22.7534 34.2325 22.8336 34.3474 22.7974L34.9472 22.6083C35.0621 22.5721 35.1303 22.4332 35.0995 22.298L34.9388 21.5925C34.908 21.4573 34.7899 21.3771 34.675 21.4134Z" fill="white"/>
<path d="M35.8781 21.0344L35.2783 21.2235C35.1635 21.2597 35.0953 21.3986 35.1261 21.5338L35.2868 22.2393C35.3175 22.3745 35.4356 22.4547 35.5505 22.4185L36.1503 22.2294C36.2652 22.1932 36.3334 22.0543 36.3026 21.9191L36.1419 21.2136C36.1111 21.0784 35.993 20.9982 35.8781 21.0344Z" fill="white"/>
<path d="M37.0812 20.6555L36.4815 20.8446C36.3666 20.8808 36.2984 21.0197 36.3292 21.1549L36.4899 21.8604C36.5207 21.9956 36.6388 22.0758 36.7537 22.0396L37.3534 21.8505C37.4683 21.8143 37.5365 21.6754 37.5057 21.5402L37.345 20.8347C37.3142 20.6995 37.1961 20.6193 37.0812 20.6555Z" fill="white"/>
<path d="M38.2922 20.2766L37.6924 20.4657C37.5775 20.5019 37.5093 20.6408 37.5401 20.776L37.7008 21.4815C37.7316 21.6167 37.8497 21.6969 37.9646 21.6606L38.5644 21.4716C38.6793 21.4354 38.7475 21.2965 38.7167 21.1613L38.556 20.4558C38.5252 20.3206 38.4071 20.2404 38.2922 20.2766Z" fill="white"/>
<path d="M39.4953 19.8977L38.8955 20.0868C38.7806 20.123 38.7125 20.2619 38.7432 20.3971L38.904 21.1026C38.9347 21.2377 39.0528 21.318 39.1677 21.2817L39.7675 21.0927C39.8824 21.0565 39.9506 20.9176 39.9198 20.7824L39.7591 20.0769C39.7283 19.9417 39.6102 19.8615 39.4953 19.8977Z" fill="white"/>
<path d="M40.6984 19.5149L40.0987 19.704C39.9838 19.7402 39.9156 19.8791 39.9464 20.0143L40.1071 20.7198C40.1379 20.8549 40.256 20.9351 40.3709 20.8989L40.9706 20.7099C41.0855 20.6737 41.1537 20.5347 41.1229 20.3996L40.9622 19.6941C40.9314 19.5589 40.8133 19.4787 40.6984 19.5149Z" fill="white"/>
<path fill-rule="evenodd" clip-rule="evenodd" d="M40.6592 19.3585L39.6833 19.6661C39.6281 19.6835 39.5693 19.6744 39.5198 19.6408C39.4704 19.6072 39.4343 19.5519 39.4195 19.487L39.2588 18.7815C39.244 18.7166 39.2517 18.6474 39.2803 18.5892C39.3088 18.531 39.3559 18.4886 39.4111 18.4712L40.387 18.1636C40.4421 18.1462 40.5009 18.1553 40.5504 18.1889C40.5999 18.2225 40.636 18.2778 40.6507 18.3427L40.8114 19.0482C40.8262 19.1132 40.8185 19.1823 40.7899 19.2405C40.7614 19.2987 40.7143 19.3412 40.6592 19.3585Z" fill="white"/>
<path d="M38.4813 20.0437L39.081 19.8546C39.1959 19.8184 39.2641 19.6795 39.2333 19.5443L39.0726 18.8388C39.0418 18.7037 38.9237 18.6235 38.8088 18.6597L38.2091 18.8487C38.0942 18.8849 38.026 19.0238 38.0568 19.159L38.2175 19.8645C38.2483 19.9997 38.3664 20.0799 38.4813 20.0437Z" fill="white"/>
<path d="M37.2781 20.4226L37.8779 20.2335C37.9928 20.1973 38.061 20.0584 38.0302 19.9232L37.8695 19.2177C37.8387 19.0826 37.7206 19.0024 37.6057 19.0386L37.0059 19.2276C36.891 19.2638 36.8229 19.4028 36.8536 19.5379L37.0144 20.2434C37.0451 20.3786 37.1632 20.4588 37.2781 20.4226Z" fill="white"/>
<path d="M36.075 20.8015L36.6748 20.6124C36.7897 20.5762 36.8579 20.4373 36.8271 20.3022L36.6664 19.5966C36.6356 19.4615 36.5175 19.3813 36.4026 19.4175L35.8028 19.6065C35.6879 19.6427 35.6197 19.7817 35.6505 19.9168L35.8112 20.6223C35.842 20.7575 35.9601 20.8377 36.075 20.8015Z" fill="white"/>
<path d="M34.8719 21.1804L35.4717 20.9914C35.5865 20.9551 35.6547 20.8162 35.6239 20.6811L35.4632 19.9755C35.4325 19.8404 35.3144 19.7602 35.1995 19.7964L34.5997 19.9854C34.4848 20.0216 34.4166 20.1606 34.4474 20.2957L34.6081 21.0013C34.6389 21.1364 34.757 21.2166 34.8719 21.1804Z" fill="white"/>
<path d="M33.6609 21.5593L34.2607 21.3703C34.3756 21.334 34.4438 21.1951 34.413 21.06L34.2523 20.3544C34.2215 20.2193 34.1034 20.1391 33.9885 20.1753L33.3888 20.3643C33.2739 20.4006 33.2057 20.5395 33.2365 20.6746L33.3972 21.3802C33.428 21.5153 33.5461 21.5955 33.6609 21.5593Z" fill="white"/>
<path d="M32.4578 21.9421L33.0576 21.7531C33.1725 21.7169 33.2407 21.5779 33.2099 21.4428L33.0492 20.7373C33.0184 20.6021 32.9003 20.5219 32.7854 20.5581L32.1856 20.7471C32.0707 20.7834 32.0025 20.9223 32.0333 21.0574L32.194 21.763C32.2248 21.8981 32.3429 21.9783 32.4578 21.9421Z" fill="white"/>
<path d="M31.2547 22.3171L31.8545 22.1281C31.9694 22.0919 32.0375 21.9529 32.0068 21.8178L31.846 21.1123C31.8153 20.9771 31.6972 20.8969 31.5823 20.9331L30.9825 21.1221C30.8676 21.1584 30.7994 21.2973 30.8302 21.4324L30.9909 22.138C31.0217 22.2731 31.1398 22.3533 31.2547 22.3171Z" fill="white"/>
<path d="M30.0516 22.6999L30.6513 22.5109C30.7662 22.4747 30.8344 22.3357 30.8036 22.2006L30.6429 21.4951C30.6121 21.3599 30.494 21.2797 30.3791 21.3159L29.7794 21.505C29.6645 21.5412 29.5963 21.6801 29.6271 21.8153L29.7878 22.5208C29.8186 22.6559 29.9367 22.7361 30.0516 22.6999Z" fill="white"/>
<path d="M28.8484 23.0788L29.4482 22.8898C29.5631 22.8536 29.6313 22.7147 29.6005 22.5795L29.4398 21.874C29.409 21.7388 29.2909 21.6586 29.176 21.6948L28.5763 21.8839C28.4614 21.9201 28.3932 22.059 28.424 22.1942L28.5847 22.8997C28.6155 23.0348 28.7336 23.1151 28.8484 23.0788Z" fill="white"/>
<path d="M27.6453 23.4577L28.2451 23.2687C28.36 23.2325 28.4282 23.0936 28.3974 22.9584L28.2367 22.2529C28.2059 22.1177 28.0878 22.0375 27.9729 22.0737L27.3731 22.2628C27.2582 22.299 27.19 22.4379 27.2208 22.5731L27.3815 23.2786C27.4123 23.4138 27.5304 23.494 27.6453 23.4577Z" fill="white"/>
<path d="M26.4344 23.8366L27.0342 23.6476C27.149 23.6114 27.2172 23.4725 27.1864 23.3373L27.0257 22.6318C26.995 22.4966 26.8769 22.4164 26.762 22.4526L26.1622 22.6417C26.0473 22.6779 25.9791 22.8168 26.0099 22.952L26.1706 23.6575C26.2014 23.7927 26.3195 23.8729 26.4344 23.8366Z" fill="white"/>
<path d="M25.2313 24.2156L25.831 24.0265C25.9459 23.9903 26.0141 23.8514 25.9833 23.7162L25.8226 23.0107C25.7918 22.8755 25.6737 22.7953 25.5588 22.8315L24.9591 23.0206C24.8442 23.0568 24.776 23.1957 24.8068 23.3309L24.9675 24.0364C24.9983 24.1716 25.1164 24.2518 25.2313 24.2156Z" fill="white"/>
<path d="M24.0281 24.5945L24.6279 24.4054C24.7428 24.3692 24.811 24.2303 24.7802 24.0951L24.6195 23.3896C24.5887 23.2544 24.4706 23.1742 24.3557 23.2104L23.7559 23.3995C23.641 23.4357 23.5729 23.5746 23.6036 23.7098L23.7644 24.4153C23.7951 24.5505 23.9132 24.6307 24.0281 24.5945Z" fill="white"/>
<path d="M38.4813 20.0437L39.081 19.8546C39.1959 19.8184 39.2641 19.6795 39.2333 19.5443L39.0726 18.8388C39.0418 18.7037 38.9237 18.6235 38.8088 18.6597L38.2091 18.8487C38.0942 18.8849 38.026 19.0238 38.0568 19.159L38.2175 19.8645C38.2483 19.9997 38.3664 20.0799 38.4813 20.0437Z" fill="white"/>
<path d="M37.2781 20.4226L37.8779 20.2335C37.9928 20.1973 38.061 20.0584 38.0302 19.9232L37.8695 19.2177C37.8387 19.0826 37.7206 19.0024 37.6057 19.0386L37.0059 19.2276C36.891 19.2638 36.8229 19.4028 36.8536 19.5379L37.0144 20.2434C37.0451 20.3786 37.1632 20.4588 37.2781 20.4226Z" fill="white"/>
<path d="M36.075 20.8015L36.6748 20.6124C36.7897 20.5762 36.8579 20.4373 36.8271 20.3022L36.6664 19.5966C36.6356 19.4615 36.5175 19.3813 36.4026 19.4175L35.8028 19.6065C35.6879 19.6427 35.6197 19.7817 35.6505 19.9168L35.8112 20.6223C35.842 20.7575 35.9601 20.8377 36.075 20.8015Z" fill="white"/>
<path d="M34.8719 21.1804L35.4717 20.9914C35.5865 20.9551 35.6547 20.8162 35.6239 20.6811L35.4632 19.9755C35.4325 19.8404 35.3144 19.7602 35.1995 19.7964L34.5997 19.9854C34.4848 20.0216 34.4166 20.1606 34.4474 20.2957L34.6081 21.0013C34.6389 21.1364 34.757 21.2166 34.8719 21.1804Z" fill="white"/>
<path d="M33.6609 21.5593L34.2607 21.3703C34.3756 21.334 34.4438 21.1951 34.413 21.06L34.2523 20.3544C34.2215 20.2193 34.1034 20.1391 33.9885 20.1753L33.3888 20.3643C33.2739 20.4006 33.2057 20.5395 33.2365 20.6746L33.3972 21.3802C33.428 21.5153 33.5461 21.5955 33.6609 21.5593Z" fill="white"/>
<path d="M32.4578 21.9421L33.0576 21.7531C33.1725 21.7169 33.2407 21.5779 33.2099 21.4428L33.0492 20.7373C33.0184 20.6021 32.9003 20.5219 32.7854 20.5581L32.1856 20.7471C32.0707 20.7834 32.0025 20.9223 32.0333 21.0574L32.194 21.763C32.2248 21.8981 32.3429 21.9783 32.4578 21.9421Z" fill="white"/>
<path d="M31.2547 22.3171L31.8545 22.1281C31.9694 22.0919 32.0375 21.9529 32.0068 21.8178L31.846 21.1123C31.8153 20.9771 31.6972 20.8969 31.5823 20.9331L30.9825 21.1221C30.8676 21.1584 30.7994 21.2973 30.8302 21.4324L30.9909 22.138C31.0217 22.2731 31.1398 22.3533 31.2547 22.3171Z" fill="white"/>
<path d="M30.0516 22.6999L30.6513 22.5109C30.7662 22.4747 30.8344 22.3357 30.8036 22.2006L30.6429 21.4951C30.6121 21.3599 30.494 21.2797 30.3791 21.3159L29.7794 21.505C29.6645 21.5412 29.5963 21.6801 29.6271 21.8153L29.7878 22.5208C29.8186 22.6559 29.9367 22.7361 30.0516 22.6999Z" fill="white"/>
<path d="M28.8484 23.0788L29.4482 22.8898C29.5631 22.8536 29.6313 22.7147 29.6005 22.5795L29.4398 21.874C29.409 21.7388 29.2909 21.6586 29.176 21.6948L28.5763 21.8839C28.4614 21.9201 28.3932 22.059 28.424 22.1942L28.5847 22.8997C28.6155 23.0348 28.7336 23.1151 28.8484 23.0788Z" fill="white"/>
<path d="M27.6453 23.4577L28.2451 23.2687C28.36 23.2325 28.4282 23.0936 28.3974 22.9584L28.2367 22.2529C28.2059 22.1177 28.0878 22.0375 27.9729 22.0737L27.3731 22.2628C27.2582 22.299 27.19 22.4379 27.2208 22.5731L27.3815 23.2786C27.4123 23.4138 27.5304 23.494 27.6453 23.4577Z" fill="white"/>
<path d="M26.4344 23.8366L27.0342 23.6476C27.149 23.6114 27.2172 23.4725 27.1864 23.3373L27.0257 22.6318C26.995 22.4966 26.8769 22.4164 26.762 22.4526L26.1622 22.6417C26.0473 22.6779 25.9791 22.8168 26.0099 22.952L26.1706 23.6575C26.2014 23.7927 26.3195 23.8729 26.4344 23.8366Z" fill="white"/>
<path d="M25.2313 24.2156L25.831 24.0265C25.9459 23.9903 26.0141 23.8514 25.9833 23.7162L25.8226 23.0107C25.7918 22.8755 25.6737 22.7953 25.5588 22.8315L24.9591 23.0206C24.8442 23.0568 24.776 23.1957 24.8068 23.3309L24.9675 24.0364C24.9983 24.1716 25.1164 24.2518 25.2313 24.2156Z" fill="white"/>
<path d="M24.0281 24.5945L24.6279 24.4054C24.7428 24.3692 24.811 24.2303 24.7802 24.0951L24.6195 23.3896C24.5887 23.2544 24.4706 23.1742 24.3557 23.2104L23.7559 23.3995C23.641 23.4357 23.5729 23.5746 23.6036 23.7098L23.7644 24.4153C23.7951 24.5505 23.9132 24.6307 24.0281 24.5945Z" fill="white"/>
<path fill-rule="evenodd" clip-rule="evenodd" d="M24.3955 26.1727L25.7852 25.7347C25.8404 25.7173 25.8992 25.7264 25.9486 25.76C25.9981 25.7936 26.0342 25.8489 26.049 25.9138L26.2097 26.6194C26.2245 26.6843 26.2167 26.7534 26.1882 26.8116C26.1596 26.8698 26.1126 26.9123 26.0574 26.9297L24.6677 27.3677C24.6126 27.3851 24.5538 27.376 24.5043 27.3424C24.4548 27.3088 24.4187 27.2534 24.404 27.1885L24.2433 26.4832C24.2285 26.4183 24.2363 26.3492 24.2648 26.291C24.2934 26.2328 24.3404 26.1903 24.3956 26.173L24.3955 26.1727Z" fill="white"/>
<path d="M27.0266 25.343L26.4268 25.5321C26.3119 25.5683 26.2437 25.7072 26.2745 25.8424L26.4352 26.5479C26.466 26.6831 26.5841 26.7633 26.699 26.7271L27.2987 26.538C27.4136 26.5018 27.4818 26.3629 27.451 26.2277L27.2903 25.5222C27.2595 25.387 27.1414 25.3068 27.0266 25.343Z" fill="white"/>
<path d="M28.2297 24.968L27.6299 25.1571C27.515 25.1933 27.4468 25.3322 27.4776 25.4674L27.6383 26.1729C27.6691 26.3081 27.7872 26.3883 27.9021 26.3521L28.5019 26.163C28.6168 26.1268 28.685 25.9879 28.6542 25.8527L28.4935 25.1472C28.4627 25.012 28.3446 24.9318 28.2297 24.968Z" fill="white"/>
<path d="M29.4406 24.5852L28.8408 24.7743C28.726 24.8105 28.6578 24.9494 28.6886 25.0846L28.8493 25.7901C28.88 25.9252 28.9981 26.0055 29.113 25.9692L29.7128 25.7802C29.8277 25.744 29.8959 25.6051 29.8651 25.4699L29.7044 24.7644C29.6736 24.6292 29.5555 24.549 29.4406 24.5852Z" fill="white"/>
<path d="M30.6437 24.2063L30.044 24.3954C29.9291 24.4316 29.8609 24.5705 29.8917 24.7057L30.0524 25.4112C30.0832 25.5463 30.2013 25.6265 30.3162 25.5903L30.9159 25.4013C31.0308 25.3651 31.099 25.2262 31.0682 25.091L30.9075 24.3855C30.8767 24.2503 30.7586 24.1701 30.6437 24.2063Z" fill="white"/>
<path d="M31.8469 23.8274L31.2471 24.0165C31.1322 24.0527 31.064 24.1916 31.0948 24.3268L31.2555 25.0323C31.2863 25.1674 31.4044 25.2476 31.5193 25.2114L32.1191 25.0224C32.234 24.9862 32.3021 24.8472 32.2714 24.7121L32.1106 24.0066C32.0799 23.8714 31.9618 23.7912 31.8469 23.8274Z" fill="white"/>
<path d="M33.05 23.4485L32.4502 23.6376C32.3353 23.6738 32.2671 23.8127 32.2979 23.9478L32.4586 24.6534C32.4894 24.7885 32.6075 24.8687 32.7224 24.8325L33.3222 24.6435C33.4371 24.6073 33.5053 24.4683 33.4745 24.3332L33.3138 23.6277C33.283 23.4925 33.1649 23.4123 33.05 23.4485Z" fill="white"/>
<path d="M34.2531 23.0696L33.6533 23.2586C33.5385 23.2949 33.4703 23.4338 33.5011 23.5689L33.6618 24.2745C33.6925 24.4096 33.8106 24.4898 33.9255 24.4536L34.5253 24.2646C34.6402 24.2284 34.7084 24.0894 34.6776 23.9543L34.5169 23.2487C34.4861 23.1136 34.368 23.0334 34.2531 23.0696Z" fill="white"/>
<path d="M35.4562 22.6907L34.8565 22.8797C34.7416 22.916 34.6734 23.0549 34.7042 23.19L34.8649 23.8956C34.8957 24.0307 35.0138 24.1109 35.1287 24.0747L35.7284 23.8857C35.8433 23.8494 35.9115 23.7105 35.8807 23.5754L35.72 22.8698C35.6892 22.7347 35.5711 22.6545 35.4562 22.6907Z" fill="white"/>
<path d="M36.6594 22.3079L36.0596 22.4969C35.9447 22.5331 35.8765 22.6721 35.9073 22.8072L36.068 23.5127C36.0988 23.6479 36.2169 23.7281 36.3318 23.6919L36.9316 23.5029C37.0465 23.4666 37.1146 23.3277 37.0839 23.1926L36.9231 22.487C36.8924 22.3519 36.7743 22.2717 36.6594 22.3079Z" fill="white"/>
<path d="M37.8625 21.929L37.2627 22.118C37.1478 22.1542 37.0796 22.2932 37.1104 22.4283L37.2711 23.1338C37.3019 23.269 37.42 23.3492 37.5349 23.313L38.1347 23.1239C38.2496 23.0877 38.3178 22.9488 38.287 22.8137L38.1263 22.1081C38.0955 21.973 37.9774 21.8928 37.8625 21.929Z" fill="white"/>
<path d="M39.0656 21.5501L38.4658 21.7391C38.351 21.7753 38.2828 21.9143 38.3136 22.0494L38.4743 22.7549C38.505 22.8901 38.6231 22.9703 38.738 22.9341L39.3378 22.745C39.4527 22.7088 39.5209 22.5699 39.4901 22.4347L39.3294 21.7292C39.2986 21.5941 39.1805 21.5139 39.0656 21.5501Z" fill="white"/>
<path fill-rule="evenodd" clip-rule="evenodd" d="M39.7004 21.3484L41.0148 20.9341C41.07 20.9167 41.1288 20.9259 41.1782 20.9594C41.2277 20.993 41.2638 21.0484 41.2786 21.1133L41.4393 21.8188C41.4541 21.8837 41.4463 21.9529 41.4178 22.0111C41.3892 22.0693 41.3422 22.1117 41.287 22.1291L39.9724 22.5435C39.9172 22.5608 39.8585 22.5517 39.809 22.5181C39.7595 22.4846 39.7234 22.4292 39.7086 22.3643L39.548 21.659C39.5332 21.5941 39.5409 21.525 39.5695 21.4668C39.5981 21.4086 39.6451 21.3661 39.7003 21.3487L39.7004 21.3484Z" fill="white"/>
<path d="M25.6594 28.9094L25.0596 29.0985C24.9447 29.1347 24.8765 29.2736 24.9073 29.4088L25.068 30.1143C25.0988 30.2495 25.2169 30.3297 25.3318 30.2935L25.9316 30.1044C26.0465 30.0682 26.1146 29.9293 26.0839 29.7941L25.9231 29.0886C25.8924 28.9534 25.7743 28.8732 25.6594 28.9094Z" fill="white"/>
<path d="M26.8625 28.5305L26.2627 28.7196C26.1478 28.7558 26.0796 28.8947 26.1104 29.0299L26.2711 29.7354C26.3019 29.8706 26.42 29.9508 26.5349 29.9146L27.1347 29.7255C27.2496 29.6893 27.3178 29.5504 27.287 29.4152L27.1263 28.7097C27.0955 28.5745 26.9774 28.4943 26.8625 28.5305Z" fill="white"/>
<path d="M28.0656 28.1516L27.4658 28.3407C27.351 28.3769 27.2828 28.5158 27.3136 28.651L27.4743 29.3565C27.505 29.4917 27.6231 29.5719 27.738 29.5356L28.3378 29.3466C28.4527 29.3104 28.5209 29.1715 28.4901 29.0363L28.3294 28.3308C28.2986 28.1956 28.1805 28.1154 28.0656 28.1516Z" fill="white"/>
<path d="M29.2687 27.7688L28.669 27.9579C28.5541 27.9941 28.4859 28.133 28.5167 28.2682L28.6774 28.9737C28.7082 29.1088 28.8263 29.189 28.9412 29.1528L29.5409 28.9638C29.6558 28.9276 29.724 28.7887 29.6932 28.6535L29.5325 27.948C29.5017 27.8128 29.3836 27.7326 29.2687 27.7688Z" fill="white"/>
<path fill-rule="evenodd" clip-rule="evenodd" d="M29.8799 27.579L35.6716 25.7534C35.7268 25.736 35.7856 25.7451 35.8351 25.7787C35.8845 25.8123 35.9206 25.8677 35.9354 25.9326L36.0962 26.6383C36.111 26.7032 36.1032 26.7724 36.0747 26.8306C36.0461 26.8888 35.9991 26.9312 35.9439 26.9486L30.1522 28.7742C30.097 28.7916 30.0382 28.7825 29.9887 28.7489C29.9393 28.7153 29.9032 28.6599 29.8884 28.595L29.7276 27.8893C29.7128 27.8243 29.7206 27.7552 29.7491 27.697C29.7777 27.6388 29.8247 27.5963 29.8799 27.579ZM36.2756 25.5631L37.026 25.3265C37.0811 25.3091 37.1399 25.3183 37.1894 25.3519C37.2389 25.3854 37.2749 25.4408 37.2897 25.5057L37.4505 26.2115C37.4653 26.2764 37.4575 26.3455 37.429 26.4037C37.4004 26.4619 37.3534 26.5044 37.2982 26.5218L36.5478 26.7583C36.4926 26.7757 36.4339 26.7666 36.3844 26.733C36.3349 26.6994 36.2988 26.644 36.284 26.5791L36.1233 25.8734C36.1085 25.8084 36.1162 25.7393 36.1448 25.6811C36.1734 25.6229 36.2204 25.5805 36.2756 25.5631Z" fill="white"/>
<path d="M38.2219 24.9485L37.6221 25.1376C37.5072 25.1738 37.439 25.3127 37.4698 25.4478L37.6305 26.1534C37.6613 26.2885 37.7794 26.3687 37.8943 26.3325L38.4941 26.1435C38.609 26.1073 38.6771 25.9683 38.6464 25.8332L38.4856 25.1277C38.4549 24.9925 38.3368 24.9123 38.2219 24.9485Z" fill="white"/>
<path d="M39.425 24.5696L38.8252 24.7586C38.7103 24.7949 38.6421 24.9338 38.6729 25.0689L38.8336 25.7745C38.8644 25.9096 38.9825 25.9898 39.0974 25.9536L39.6972 25.7646C39.8121 25.7284 39.8803 25.5894 39.8495 25.4543L39.6888 24.7487C39.658 24.6136 39.5399 24.5334 39.425 24.5696Z" fill="white"/>
<path d="M41.6906 23.8587L41.0908 24.0477C40.976 24.0839 40.9078 24.2228 40.9386 24.358L41.0993 25.0635C41.13 25.1987 41.2481 25.2789 41.363 25.2427L41.9628 25.0536C42.0777 25.0174 42.1459 24.8785 42.1151 24.7433L41.9544 24.0378C41.9236 23.9027 41.8055 23.8224 41.6906 23.8587Z" fill="white"/>
<path d="M39.867 24.9764L39.8068 24.7121C39.792 24.6472 39.7997 24.5781 39.8283 24.5199C39.8568 24.4617 39.9039 24.4192 39.9591 24.4019L40.5588 24.2128C40.614 24.1954 40.6728 24.2045 40.7223 24.2381C40.7717 24.2717 40.8078 24.327 40.8226 24.392L40.8828 24.6562L39.867 24.9764Z" fill="white"/>
<path d="M40.9221 24.8322L40.9823 25.0965C40.9971 25.1614 40.9893 25.2305 40.9608 25.2887C40.9322 25.3469 40.8852 25.3894 40.83 25.4067L40.2302 25.5958C40.1751 25.6132 40.1163 25.6041 40.0668 25.5705C40.0173 25.5369 39.9812 25.4815 39.9665 25.4166L39.9062 25.1523L40.9221 24.8322Z" fill="white"/>
<path d="M40.1728 17.5005L23.6945 22.6945C23.5698 22.7338 23.4958 22.8845 23.5292 23.0311C23.5626 23.1778 23.6908 23.2648 23.8154 23.2255L40.2938 18.0316C40.4184 17.9923 40.4924 17.8416 40.459 17.6949C40.4256 17.5483 40.2975 17.4612 40.1728 17.5005Z" fill="white"/>
<path opacity="0.136" d="M24.7051 22.4709L24.0567 22.6752C23.9736 22.7014 23.9243 22.8019 23.9466 22.8996L23.9466 22.8998C23.9689 22.9976 24.0543 23.0555 24.1373 23.0294L24.7858 22.825C24.8688 22.7988 24.9181 22.6983 24.8959 22.6006L24.8958 22.6004C24.8736 22.5027 24.7882 22.4447 24.7051 22.4709Z" fill="#1C1C1C"/>
<path opacity="0.136" d="M26.002 22.0607L25.3535 22.2651C25.2705 22.2913 25.2212 22.3917 25.2434 22.4894L25.2435 22.4897C25.2657 22.5874 25.3511 22.6454 25.4342 22.6192L26.0826 22.4148C26.1657 22.3886 26.215 22.2882 26.1928 22.1905L26.1927 22.1902C26.1704 22.0925 26.0851 22.0345 26.002 22.0607Z" fill="#1C1C1C"/>
<path opacity="0.136" d="M27.002 21.7443L26.3535 21.9487C26.2705 21.9749 26.2212 22.0753 26.2434 22.173L26.2435 22.1733C26.2657 22.271 26.3511 22.329 26.4342 22.3028L27.0826 22.0984C27.1657 22.0722 27.215 21.9718 27.1928 21.8741L27.1927 21.8738C27.1704 21.7761 27.0851 21.7181 27.002 21.7443Z" fill="#1C1C1C"/>
<path opacity="0.136" d="M28.002 21.4318L27.3535 21.6362C27.2705 21.6624 27.2212 21.7628 27.2434 21.8605L27.2435 21.8608C27.2657 21.9585 27.3511 22.0165 27.4342 21.9903L28.0826 21.7859C28.1657 21.7597 28.215 21.6593 28.1928 21.5616L28.1927 21.5613C28.1704 21.4636 28.0851 21.4056 28.002 21.4318Z" fill="#1C1C1C"/>
<path opacity="0.136" d="M29.002 21.1154L28.3535 21.3198C28.2705 21.346 28.2212 21.4464 28.2434 21.5441L28.2435 21.5444C28.2657 21.6421 28.3511 21.7001 28.4342 21.6739L29.0826 21.4695C29.1657 21.4433 29.215 21.3429 29.1928 21.2452L29.1927 21.2449C29.1704 21.1472 29.0851 21.0892 29.002 21.1154Z" fill="#1C1C1C"/>
<path opacity="0.136" d="M30.252 20.7209L29.6035 20.9252C29.5205 20.9514 29.4712 21.0519 29.4934 21.1496L29.4935 21.1498C29.5157 21.2476 29.6011 21.3055 29.6842 21.2794L30.3326 21.075C30.4157 21.0488 30.465 20.9483 30.4428 20.8506L30.4427 20.8504C30.4204 20.7527 30.3351 20.6947 30.252 20.7209Z" fill="#1C1C1C"/>
<path opacity="0.136" d="M31.252 20.4084L30.6035 20.6127C30.5205 20.6389 30.4712 20.7394 30.4934 20.8371L30.4935 20.8373C30.5157 20.9351 30.6011 20.993 30.6842 20.9669L31.3326 20.7625C31.4157 20.7363 31.465 20.6358 31.4428 20.5381L31.4427 20.5379C31.4204 20.4402 31.3351 20.3822 31.252 20.4084Z" fill="#1C1C1C"/>
<path opacity="0.136" d="M32.252 20.092L31.6035 20.2963C31.5205 20.3225 31.4712 20.423 31.4934 20.5207L31.4935 20.5209C31.5157 20.6186 31.6011 20.6766 31.6842 20.6505L32.3326 20.4461C32.4157 20.4199 32.465 20.3194 32.4428 20.2217L32.4427 20.2215C32.4204 20.1238 32.3351 20.0658 32.252 20.092Z" fill="#1C1C1C"/>
<path opacity="0.136" d="M33.252 19.7755L32.6035 19.9799C32.5205 20.0061 32.4712 20.1066 32.4934 20.2043L32.4935 20.2045C32.5157 20.3022 32.6011 20.3602 32.6842 20.334L33.3326 20.1297C33.4157 20.1035 33.465 20.003 33.4428 19.9053L33.4427 19.9051C33.4204 19.8074 33.3351 19.7494 33.252 19.7755Z" fill="#1C1C1C"/>
<path opacity="0.136" d="M34.4942 19.381L33.8457 19.5854C33.7627 19.6116 33.7134 19.712 33.7356 19.8097L33.7357 19.81C33.7579 19.9077 33.8433 19.9657 33.9264 19.9395L34.5748 19.7351C34.6579 19.7089 34.7072 19.6085 34.6849 19.5108L34.6849 19.5105C34.6626 19.4128 34.5772 19.3548 34.4942 19.381Z" fill="#1C1C1C"/>
<path opacity="0.136" d="M35.502 19.0685L34.8535 19.2729C34.7705 19.2991 34.7212 19.3995 34.7434 19.4972L34.7435 19.4975C34.7657 19.5952 34.8511 19.6532 34.9342 19.627L35.5826 19.4226C35.6657 19.3964 35.715 19.296 35.6928 19.1983L35.6927 19.198C35.6704 19.1003 35.5851 19.0423 35.502 19.0685Z" fill="#1C1C1C"/>
<path opacity="0.136" d="M36.502 18.7521L35.8535 18.9565C35.7705 18.9827 35.7212 19.0831 35.7434 19.1808L35.7435 19.1811C35.7657 19.2788 35.8511 19.3368 35.9342 19.3106L36.5826 19.1062C36.6657 19.08 36.715 18.9796 36.6928 18.8819L36.6927 18.8816C36.6704 18.7839 36.5851 18.7259 36.502 18.7521Z" fill="#1C1C1C"/>
<path opacity="0.136" d="M37.7442 18.3615L37.0957 18.5659C37.0127 18.5921 36.9634 18.6925 36.9856 18.7902L36.9857 18.7905C37.0079 18.8882 37.0933 18.9462 37.1764 18.92L37.8248 18.7156C37.9079 18.6894 37.9572 18.589 37.9349 18.4913L37.9349 18.491C37.9126 18.3933 37.8272 18.3353 37.7442 18.3615Z" fill="#1C1C1C"/>
<path opacity="0.136" d="M38.7442 18.0451L38.0957 18.2495C38.0127 18.2756 37.9634 18.3761 37.9856 18.4738L37.9857 18.4741C38.0079 18.5718 38.0933 18.6298 38.1764 18.6036L38.8248 18.3992C38.9079 18.373 38.9572 18.2726 38.9349 18.1748L38.9349 18.1746C38.9126 18.0769 38.8272 18.0189 38.7442 18.0451Z" fill="#1C1C1C"/>
<path opacity="0.136" d="M39.7442 17.7326L39.0957 17.937C39.0127 17.9631 38.9634 18.0636 38.9856 18.1613L38.9857 18.1616C39.0079 18.2593 39.0933 18.3173 39.1764 18.2911L39.8248 18.0867C39.9079 18.0605 39.9572 17.9601 39.9349 17.8623L39.9349 17.8621C39.9126 17.7644 39.8272 17.7064 39.7442 17.7326Z" fill="#1C1C1C"/>
<path fill-rule="evenodd" clip-rule="evenodd" d="M18.7344 28.2975H27.3494V23.2305H18.7344V28.2975Z" fill="#89BCD9"/>
<path fill-rule="evenodd" clip-rule="evenodd" d="M31.6478 7.713C31.6134 7.713 31.5767 7.70793 31.5423 7.70033C31.5076 7.6924 31.4737 7.68053 31.4411 7.66486C31.4087 7.64966 31.3786 7.62939 31.3482 7.60659C31.3202 7.58379 31.2924 7.55592 31.2664 7.52805C31.2429 7.49765 31.2192 7.46724 31.1998 7.43177C31.1804 7.3963 31.1632 7.36083 31.1501 7.32283C31.1236 7.24549 31.1098 7.16297 31.1094 7.07961C31.1094 7.03908 31.1137 6.99601 31.1201 6.95547C31.1266 6.91493 31.1374 6.87693 31.1501 6.83639C31.1632 6.79839 31.1804 6.76292 31.1998 6.72745C31.2192 6.69452 31.2429 6.66158 31.2664 6.63118C31.2924 6.60331 31.3202 6.57544 31.3482 6.55264C31.3786 6.52984 31.4087 6.50957 31.4411 6.49437C31.4731 6.47917 31.5078 6.4665 31.5423 6.4589C31.6112 6.44116 31.6823 6.44116 31.7533 6.4589C31.7876 6.4665 31.8223 6.47917 31.8546 6.49437C31.8867 6.50957 31.917 6.52984 31.9472 6.55264C31.9752 6.57544 32.003 6.60331 32.029 6.63118C32.0527 6.66158 32.0764 6.69452 32.0958 6.72745C32.1152 6.76292 32.1324 6.79839 32.1453 6.83639C32.1583 6.87693 32.169 6.91493 32.1755 6.95547C32.1817 6.99601 32.1862 7.03908 32.1862 7.07961C32.1862 7.24683 32.1279 7.41151 32.029 7.52805C32.003 7.55592 31.9752 7.58379 31.9472 7.60659C31.917 7.62939 31.8867 7.64966 31.8546 7.66486C31.7889 7.69637 31.7187 7.71271 31.6478 7.713ZM35.9553 7.3963C35.8132 7.3963 35.6753 7.3279 35.5739 7.21136C35.55 7.18098 35.5277 7.14882 35.5073 7.11508C35.4879 7.07961 35.4707 7.04414 35.4576 7.00614C35.4311 6.9288 35.4173 6.84628 35.4169 6.76292C35.4169 6.59571 35.475 6.43356 35.5739 6.31449C35.5999 6.28662 35.6277 6.25875 35.6557 6.23595C35.6861 6.21315 35.7162 6.19288 35.7485 6.17768C35.7806 6.16248 35.8153 6.14981 35.8498 6.14221C35.9187 6.12447 35.9919 6.12447 36.0608 6.14221C36.0951 6.14981 36.1298 6.16248 36.1621 6.17768C36.1942 6.19288 36.2245 6.21315 36.2547 6.23595C36.2827 6.25875 36.3105 6.28662 36.3365 6.31449C36.4354 6.43356 36.4937 6.59571 36.4937 6.76292C36.4937 6.80346 36.4892 6.84653 36.483 6.88707C36.4765 6.9276 36.4657 6.96814 36.4528 7.00614C36.4377 7.04414 36.4227 7.07961 36.4033 7.11508C36.3839 7.14802 36.3602 7.18095 36.3365 7.21136C36.3105 7.23923 36.2827 7.26709 36.2547 7.2899C36.2245 7.3127 36.1942 7.33297 36.1621 7.34817C36.0964 7.37967 36.0262 7.39602 35.9553 7.3963Z" fill="black"/>
</svg>
