<svg width="720" height="470" viewBox="0 0 720 470" fill="none" xmlns="http://www.w3.org/2000/svg">
  <rect width="720" height="470" rx="38" fill="#F8F9FB"/>
  <rect x="16" y="16" width="688" height="438" rx="28" fill="#FFFFFF"/>
  <rect x="16" y="16" width="688" height="52" rx="28" fill="#EEF2F7"/>
  <circle cx="52" cy="42" r="7" fill="#FF766A"/>
  <circle cx="74" cy="42" r="7" fill="#FFCF54"/>
  <circle cx="96" cy="42" r="7" fill="#57C969"/>
  <rect x="32" y="90" width="154" height="332" rx="18" fill="#2D1C55"/>
  <rect x="205" y="90" width="483" height="332" rx="18" fill="#FFFFFF"/>
  <rect x="220" y="108" width="452" height="52" rx="16" fill="#F5F6FA"/>
  <rect x="52" y="116" width="82" height="12" rx="6" fill="#FFFFFF" fill-opacity="0.9"/>
  <rect x="52" y="144" width="104" height="10" rx="5" fill="#AEBCD5" fill-opacity="0.8"/>
  <circle cx="58" cy="197" r="13" fill="#F1D0B1"/>
  <rect x="78" y="188" width="82" height="9" rx="4.5" fill="#FFFFFF"/>
  <rect x="78" y="204" width="64" height="8" rx="4" fill="#A9B4D7"/>
  <circle cx="58" cy="247" r="13" fill="#C1D2F3"/>
  <rect x="78" y="238" width="72" height="9" rx="4.5" fill="#FFFFFF"/>
  <rect x="78" y="254" width="58" height="8" rx="4" fill="#A9B4D7"/>
  <circle cx="58" cy="297" r="13" fill="#EAB6C5"/>
  <rect x="78" y="288" width="92" height="9" rx="4.5" fill="#FFFFFF"/>
  <rect x="78" y="304" width="68" height="8" rx="4" fill="#A9B4D7"/>
  <rect x="234" y="184" width="222" height="50" rx="20" fill="#ECEFF7"/>
  <rect x="256" y="198" width="120" height="10" rx="5" fill="#ADB7D8"/>
  <rect x="256" y="216" width="176" height="8" rx="4" fill="#D2D8E8"/>
  <rect x="420" y="258" width="220" height="54" rx="22" fill="#8A74EA"/>
  <rect x="442" y="273" width="122" height="10" rx="5" fill="#FFFFFF" fill-opacity="0.92"/>
  <rect x="442" y="291" width="168" height="8" rx="4" fill="#DDD2FF"/>
  <rect x="238" y="338" width="188" height="40" rx="18" fill="#F3F5FA"/>
  <rect x="250" y="352" width="92" height="8" rx="4" fill="#C3CBDF"/>
  <rect x="468" y="338" width="146" height="40" rx="18" fill="#F3F5FA"/>
  <rect x="480" y="352" width="82" height="8" rx="4" fill="#C3CBDF"/>
</svg>
