<svg width="720" height="470" viewBox="0 0 720 470" fill="none" xmlns="http://www.w3.org/2000/svg">
  <rect width="720" height="470" rx="38" fill="#F3F6FB"/>
  <rect x="20" y="20" width="680" height="430" rx="28" fill="#FFFFFF"/>
  <rect x="20" y="20" width="680" height="68" rx="28" fill="#EFF4FA"/>
  <rect x="48" y="112" width="182" height="306" rx="20" fill="#F4F7FC"/>
  <rect x="268" y="112" width="182" height="306" rx="20" fill="#F4F7FC"/>
  <rect x="488" y="112" width="182" height="306" rx="20" fill="#F4F7FC"/>
  <rect x="68" y="136" width="142" height="40" rx="16" fill="#F6D87D"/>
  <rect x="68" y="190" width="142" height="64" rx="16" fill="#FFFFFF" stroke="#D7E0EF"/>
  <rect x="68" y="270" width="142" height="54" rx="16" fill="#FFFFFF" stroke="#D7E0EF"/>
  <rect x="288" y="136" width="142" height="52" rx="16" fill="#A6D7EE"/>
  <rect x="288" y="204" width="142" height="56" rx="16" fill="#FFFFFF" stroke="#D7E0EF"/>
  <rect x="288" y="276" width="142" height="44" rx="16" fill="#FFFFFF" stroke="#D7E0EF"/>
  <rect x="508" y="136" width="142" height="48" rx="16" fill="#B8E1B0"/>
  <rect x="508" y="200" width="142" height="74" rx="16" fill="#FFFFFF" stroke="#D7E0EF"/>
  <rect x="508" y="290" width="142" height="46" rx="16" fill="#FFFFFF" stroke="#D7E0EF"/>
  <rect x="56" y="44" width="124" height="14" rx="7" fill="#C7D6E9"/>
  <rect x="520" y="42" width="132" height="18" rx="9" fill="#DDE7F4"/>
</svg>
