<svg width="114" height="97" viewBox="0 0 114 97" fill="none" xmlns="http://www.w3.org/2000/svg">
<path d="M112.5 36C118.283 64.1812 82.1933 96.5 50.2398 96.5C20.1969 96.5 0 75.2074 0 49.0002C0 14 30.4227 -3.1764e-10 50.2398 0C82.1933 0 107.332 10.8164 112.5 36Z" fill="#89BCD9" fill-opacity="0.07"/>
<path d="M81.9916 45.4426C83.5661 45.4426 84.8425 44.1657 84.8425 42.5905C84.8425 41.0152 83.5661 39.7383 81.9916 39.7383C80.417 39.7383 79.1406 41.0152 79.1406 42.5905C79.1406 44.1657 80.417 45.4426 81.9916 45.4426Z" fill="#F8F5EC"/>
<path d="M97.9861 42.5909C97.9861 40.3509 95.3577 38.403 91.269 37.2344C92.2981 33.1022 91.9365 29.8465 89.9896 28.7335C88.0426 27.6065 85.0526 28.9283 81.993 31.8778C78.9335 28.9144 75.9435 27.6065 73.9965 28.7335C72.3833 29.6657 71.7853 32.0309 72.3277 35.3978C72.425 35.9961 72.5641 36.6083 72.7171 37.2483C68.6284 38.417 66 40.3648 66 42.6048C66 44.8448 68.6284 46.7787 72.7171 47.9613C72.5641 48.5874 72.425 49.2135 72.3277 49.8117C71.7853 53.1787 72.3833 55.5439 73.9965 56.4761C74.4694 56.7544 75.0117 56.8935 75.6097 56.8935C77.0282 56.8935 78.7388 56.1144 80.6023 54.5978C81.0613 54.2222 81.5341 53.7909 81.993 53.3457C82.452 53.7909 82.9248 54.2222 83.3837 54.5978C85.2473 56.1144 86.9578 56.8935 88.3764 56.8935C88.9744 56.8935 89.5167 56.7544 89.9896 56.4761C91.6028 55.5439 92.2008 53.1787 91.6723 49.8117C91.575 49.2135 91.4359 48.6013 91.2829 47.9613C95.3716 46.7926 98 44.8448 98 42.6048L97.9861 42.5909ZM89.2942 29.93C90.5458 30.6535 90.824 33.297 89.92 36.8865C88.6128 36.5804 87.1804 36.3578 85.6645 36.2187C84.7884 34.9804 83.8705 33.8535 82.9665 32.8657C85.0804 30.8204 87.0413 29.7074 88.3903 29.7074C88.7379 29.7074 89.0439 29.777 89.3081 29.93H89.2942ZM86.4572 45.1648C85.9565 46.0135 85.442 46.8483 84.9135 47.6274C83.9817 47.697 83.0083 47.7387 82.007 47.7387C81.0056 47.7387 80.0322 47.697 79.1004 47.6274C78.5719 46.8483 78.0435 46.0135 77.5567 45.1648C77.0561 44.3022 76.611 43.4535 76.1938 42.5909C76.611 41.7283 77.0561 40.8796 77.5567 40.017C78.0574 39.1404 78.5858 38.3196 79.1004 37.5544C80.0322 37.4848 81.0056 37.443 82.007 37.443C83.0083 37.443 83.9817 37.4848 84.9135 37.5544C85.442 38.3196 85.9565 39.1404 86.4572 40.017C86.9439 40.8657 87.4029 41.7283 87.8201 42.5909C87.4168 43.4396 86.9718 44.2883 86.4572 45.1648ZM88.5432 44.2187C88.9326 45.1509 89.2664 46.0552 89.5445 46.9457C88.6545 47.1404 87.6949 47.3213 86.6797 47.4465C87.0135 46.9317 87.3333 46.403 87.6532 45.8604C87.9731 45.3178 88.2651 44.7613 88.5432 44.2187ZM81.993 51.3144C81.3672 50.6326 80.7414 49.8813 80.1295 49.0744C80.7414 49.1022 81.3533 49.1161 81.993 49.1161C82.6328 49.1161 83.2447 49.1022 83.8566 49.0744C83.2447 49.8813 82.6189 50.6187 81.993 51.3144ZM77.3064 47.4465C76.2912 47.3213 75.3316 47.1544 74.4415 46.9457C74.7197 46.0552 75.0535 45.1509 75.4429 44.2187C75.721 44.7613 76.013 45.3178 76.3329 45.8604C76.6528 46.403 76.9726 46.9317 77.3064 47.4465ZM75.4429 40.9491C75.0535 40.017 74.7197 39.1126 74.4415 38.2222C75.3316 38.0274 76.2912 37.8465 77.3064 37.7213C76.9726 38.2361 76.6528 38.7648 76.3329 39.3074C76.013 39.85 75.721 40.3926 75.4429 40.9491ZM81.993 33.8535C82.605 34.5213 83.2308 35.2726 83.8566 36.0935C83.2447 36.0657 82.6328 36.0517 81.993 36.0517C81.3533 36.0517 80.7414 36.0657 80.1295 36.0935C80.7553 35.2726 81.3672 34.5213 81.993 33.8535ZM87.6532 39.3213C87.3333 38.7787 87.0135 38.25 86.6797 37.7352C87.6949 37.8604 88.6545 38.0274 89.5445 38.2361C89.2803 39.1126 88.9465 40.017 88.5432 40.963C88.2651 40.4204 87.9591 39.8639 87.6532 39.3213ZM73.6906 35.1752C73.2595 32.4622 73.621 30.5561 74.6919 29.9439C74.9561 29.7909 75.2621 29.7213 75.6097 29.7213C76.9587 29.7213 78.9196 30.8344 81.0335 32.8796C80.1156 33.8674 79.2116 34.9944 78.3355 36.2326C76.8196 36.3717 75.3872 36.5944 74.08 36.9004C73.927 36.3161 73.8018 35.7317 73.7184 35.1891L73.6906 35.1752ZM67.3907 42.5909C67.3907 41.1439 69.5324 39.5857 73.0926 38.57C73.4959 39.8639 74.0243 41.2135 74.6502 42.5909C74.0243 43.9544 73.4959 45.3039 73.0926 46.6117C69.5463 45.5961 67.3907 44.0517 67.3907 42.5909ZM79.7262 53.4848C77.5984 55.21 75.7627 55.85 74.6919 55.2378C73.621 54.6257 73.2595 52.7057 73.6906 50.0065C73.774 49.45 73.9131 48.8796 74.0522 48.2952C75.3594 48.6013 76.7918 48.8239 78.3077 48.963C79.1838 50.1874 80.0878 51.3283 81.0056 52.33C80.5745 52.7474 80.1434 53.1509 79.7123 53.4987L79.7262 53.4848ZM90.2955 50.0065C90.7266 52.7196 90.3651 54.6257 89.2942 55.2378C88.2234 55.85 86.3877 55.21 84.2599 53.4848C83.8288 53.137 83.3977 52.7335 82.9665 52.3161C83.8983 51.3144 84.8023 50.1874 85.6645 48.963C87.1804 48.8239 88.6128 48.6013 89.92 48.2952C90.073 48.8796 90.1982 49.4639 90.2816 50.0065H90.2955ZM90.8935 46.5978C90.4902 45.3039 89.9618 43.9544 89.3359 42.577C89.9757 41.1857 90.4902 39.8361 90.8935 38.5561C94.4537 39.5717 96.5954 41.1161 96.5954 42.577C96.5954 44.0378 94.4537 45.5822 90.8935 46.5978Z" fill="#89BCD9"/>
<path d="M68.1723 65.878C68.6857 65.878 69.157 65.948 69.5863 66.088C70.025 66.2187 70.403 66.4193 70.7203 66.69C71.047 66.9513 71.299 67.278 71.4763 67.67C71.663 68.0527 71.7563 68.5007 71.7563 69.014C71.7563 69.4153 71.6957 69.8073 71.5743 70.19C71.4623 70.5727 71.271 70.9227 71.0003 71.24C70.7297 71.548 70.375 71.8 69.9363 71.996C69.507 72.1827 68.975 72.276 68.3403 72.276H66.8423V76H65.4843V65.878H68.1723ZM68.3123 70.974C68.7137 70.974 69.045 70.9133 69.3063 70.792C69.577 70.6707 69.787 70.5167 69.9363 70.33C70.0857 70.134 70.193 69.924 70.2583 69.7C70.3237 69.476 70.3563 69.266 70.3563 69.07C70.3563 68.8647 70.319 68.6547 70.2443 68.44C70.179 68.216 70.067 68.0107 69.9083 67.824C69.759 67.6373 69.5583 67.4833 69.3063 67.362C69.0637 67.2407 68.765 67.18 68.4103 67.18H66.8423V70.974H68.3123ZM69.9783 71.744L72.6243 76H71.0563L68.3683 71.786L69.9783 71.744ZM76.9011 76.14C76.2384 76.14 75.6691 76.0093 75.1931 75.748C74.7171 75.4773 74.3484 75.1133 74.0871 74.656C73.8351 74.1893 73.7091 73.6573 73.7091 73.06C73.7091 72.4907 73.8538 71.9727 74.1431 71.506C74.4324 71.0393 74.8198 70.666 75.3051 70.386C75.7904 70.106 76.3318 69.966 76.9291 69.966C77.6944 69.966 78.3291 70.19 78.8331 70.638C79.3371 71.086 79.6778 71.702 79.8551 72.486L75.0811 74.166L74.7731 73.396L78.6931 71.968L78.4131 72.15C78.3011 71.842 78.1144 71.576 77.8531 71.352C77.5918 71.1187 77.2511 71.002 76.8311 71.002C76.4764 71.002 76.1591 71.0907 75.8791 71.268C75.5991 71.436 75.3798 71.6693 75.2211 71.968C75.0624 72.2667 74.9831 72.6073 74.9831 72.99C74.9831 73.3913 75.0671 73.746 75.2351 74.054C75.4031 74.3527 75.6318 74.5907 75.9211 74.768C76.2198 74.936 76.5558 75.02 76.9291 75.02C77.1811 75.02 77.4238 74.9733 77.6571 74.88C77.8998 74.7867 78.1238 74.6653 78.3291 74.516L78.9311 75.482C78.6418 75.678 78.3151 75.8367 77.9511 75.958C77.5964 76.0793 77.2464 76.14 76.9011 76.14ZM83.8945 76.14C83.3532 76.14 82.8585 76.0233 82.4105 75.79C81.9719 75.5567 81.6219 75.216 81.3605 74.768C81.1085 74.3107 80.9825 73.7553 80.9825 73.102C80.9825 72.458 81.1179 71.9027 81.3885 71.436C81.6592 70.96 82.0185 70.596 82.4665 70.344C82.9239 70.092 83.4232 69.966 83.9645 69.966C84.5059 69.966 84.9632 70.092 85.3365 70.344C85.7099 70.5867 85.9945 70.876 86.1905 71.212L86.1065 71.436L86.2325 70.204H87.4365V76H86.1345V74.488L86.2745 74.824C86.2372 74.9173 86.1532 75.0387 86.0225 75.188C85.9012 75.328 85.7332 75.4727 85.5185 75.622C85.3132 75.7713 85.0752 75.8973 84.8045 76C84.5339 76.0933 84.2305 76.14 83.8945 76.14ZM84.2445 75.062C84.5712 75.062 84.8652 75.0013 85.1265 74.88C85.3879 74.7587 85.6025 74.5907 85.7705 74.376C85.9479 74.152 86.0692 73.886 86.1345 73.578V72.444C86.0599 72.164 85.9292 71.9213 85.7425 71.716C85.5559 71.5013 85.3319 71.338 85.0705 71.226C84.8092 71.1047 84.5199 71.044 84.2025 71.044C83.8572 71.044 83.5399 71.128 83.2505 71.296C82.9612 71.464 82.7279 71.6973 82.5505 71.996C82.3825 72.2947 82.2985 72.6447 82.2985 73.046C82.2985 73.4193 82.3872 73.76 82.5645 74.068C82.7419 74.376 82.9799 74.6187 83.2785 74.796C83.5772 74.9733 83.8992 75.062 84.2445 75.062ZM94.3937 75.468C94.1323 75.6733 93.8197 75.8367 93.4557 75.958C93.0917 76.0793 92.7277 76.14 92.3637 76.14C91.729 76.14 91.1737 76.014 90.6977 75.762C90.2217 75.51 89.8483 75.16 89.5777 74.712C89.3163 74.2547 89.1857 73.718 89.1857 73.102C89.1857 72.486 89.3257 71.9493 89.6057 71.492C89.895 71.0347 90.2683 70.6847 90.7257 70.442C91.1923 70.19 91.6917 70.064 92.2237 70.064C92.6903 70.064 93.1057 70.1293 93.4697 70.26C93.843 70.3907 94.1603 70.568 94.4217 70.792L93.7777 71.632C93.6097 71.5013 93.4043 71.3847 93.1617 71.282C92.919 71.1793 92.6437 71.128 92.3357 71.128C91.9997 71.128 91.687 71.2167 91.3977 71.394C91.1177 71.562 90.8937 71.7953 90.7257 72.094C90.567 72.3927 90.4877 72.7287 90.4877 73.102C90.4877 73.4567 90.5717 73.788 90.7397 74.096C90.9077 74.3947 91.141 74.6327 91.4397 74.81C91.7383 74.978 92.079 75.062 92.4617 75.062C92.7137 75.062 92.9423 75.0247 93.1477 74.95C93.3623 74.8753 93.5537 74.7727 93.7217 74.642L94.3937 75.468ZM96.6344 67.656H97.9364V70.232H99.5324V71.254H97.9364V76H96.6344V71.254H95.5704V70.232H96.6344V67.656Z" fill="#F8F5EC"/>
<path d="M34.6951 29.668L31.0006 36.068L27.3049 29.668H15L31.0006 57.3817L47 29.668H34.6951Z" fill="#89BCD9"/>
<path d="M34.6936 29.668L30.999 36.068L27.3033 29.668H21.3984L30.999 46.2957L40.5984 29.668H34.6936Z" fill="#F8F5EC"/>
<path d="M15.3764 65.878L18.7084 74.25L17.9384 74.096L21.1024 65.878H22.6844L18.2184 76.462L13.7664 65.878H15.3764ZM25.0608 76.224C24.5381 76.224 24.1041 76.0653 23.7588 75.748C23.4228 75.4213 23.2454 75.0013 23.2268 74.488V70.204H24.5288V74.026C24.5474 74.3433 24.6361 74.6 24.7948 74.796C24.9628 74.992 25.2241 75.0947 25.5788 75.104C25.9054 75.104 26.1948 75.0107 26.4468 74.824C26.7081 74.628 26.9181 74.3667 27.0768 74.04C27.2354 73.704 27.3148 73.326 27.3148 72.906V70.204H28.6168V76H27.4268L27.3148 74.572L27.3848 74.824C27.2728 75.0947 27.1001 75.3373 26.8668 75.552C26.6428 75.7573 26.3768 75.9207 26.0688 76.042C25.7608 76.1633 25.4248 76.224 25.0608 76.224ZM33.5574 76.14C32.8947 76.14 32.3254 76.0093 31.8494 75.748C31.3734 75.4773 31.0047 75.1133 30.7434 74.656C30.4914 74.1893 30.3654 73.6573 30.3654 73.06C30.3654 72.4907 30.51 71.9727 30.7994 71.506C31.0887 71.0393 31.476 70.666 31.9614 70.386C32.4467 70.106 32.988 69.966 33.5854 69.966C34.3507 69.966 34.9854 70.19 35.4894 70.638C35.9934 71.086 36.334 71.702 36.5114 72.486L31.7374 74.166L31.4294 73.396L35.3494 71.968L35.0694 72.15C34.9574 71.842 34.7707 71.576 34.5094 71.352C34.248 71.1187 33.9074 71.002 33.4874 71.002C33.1327 71.002 32.8154 71.0907 32.5354 71.268C32.2554 71.436 32.036 71.6693 31.8774 71.968C31.7187 72.2667 31.6394 72.6073 31.6394 72.99C31.6394 73.3913 31.7234 73.746 31.8914 74.054C32.0594 74.3527 32.288 74.5907 32.5774 74.768C32.876 74.936 33.212 75.02 33.5854 75.02C33.8374 75.02 34.08 74.9733 34.3134 74.88C34.556 74.7867 34.78 74.6653 34.9854 74.516L35.5874 75.482C35.298 75.678 34.9714 75.8367 34.6074 75.958C34.2527 76.0793 33.9027 76.14 33.5574 76.14ZM37.4848 71.45C37.4848 71.2447 37.5595 71.072 37.7088 70.932C37.8675 70.7827 38.0355 70.708 38.2128 70.708C38.3901 70.708 38.5535 70.778 38.7028 70.918C38.8615 71.058 38.9408 71.2353 38.9408 71.45C38.9408 71.674 38.8615 71.856 38.7028 71.996C38.5535 72.1267 38.3901 72.192 38.2128 72.192C38.0355 72.192 37.8675 72.1267 37.7088 71.996C37.5595 71.856 37.4848 71.674 37.4848 71.45ZM37.4848 75.258C37.4848 75.0527 37.5595 74.88 37.7088 74.74C37.8675 74.5907 38.0355 74.516 38.2128 74.516C38.3901 74.516 38.5535 74.5907 38.7028 74.74C38.8615 74.88 38.9408 75.0527 38.9408 75.258C38.9408 75.482 38.8615 75.664 38.7028 75.804C38.5535 75.9347 38.3901 76 38.2128 76C38.0355 76 37.8675 75.9347 37.7088 75.804C37.5595 75.664 37.4848 75.482 37.4848 75.258ZM40.6874 78.786L39.9174 77.988C40.1787 77.764 40.3841 77.484 40.5334 77.148C40.6827 76.8213 40.7574 76.434 40.7574 75.986V70.204H42.0734V76.042C42.0734 76.6953 41.9614 77.246 41.7374 77.694C41.5227 78.1513 41.1727 78.5153 40.6874 78.786ZM40.6454 68.104C40.6454 67.8987 40.7247 67.726 40.8834 67.586C41.0514 67.446 41.2334 67.376 41.4294 67.376C41.6254 67.376 41.7981 67.446 41.9474 67.586C42.1061 67.726 42.1854 67.8987 42.1854 68.104C42.1854 68.3187 42.1061 68.496 41.9474 68.636C41.7981 68.7667 41.6254 68.832 41.4294 68.832C41.2334 68.832 41.0514 68.762 40.8834 68.622C40.7247 68.482 40.6454 68.3093 40.6454 68.104ZM45.8644 76.112C45.4538 76.112 45.0524 76.042 44.6604 75.902C44.2778 75.7527 43.9604 75.5333 43.7084 75.244L44.2544 74.488C44.4971 74.7213 44.7444 74.8987 44.9964 75.02C45.2578 75.132 45.5144 75.188 45.7664 75.188C45.9531 75.188 46.1258 75.1647 46.2844 75.118C46.4431 75.0713 46.5691 74.9967 46.6624 74.894C46.7651 74.782 46.8164 74.6327 46.8164 74.446C46.8164 74.2407 46.7464 74.0773 46.6064 73.956C46.4758 73.8347 46.3031 73.7367 46.0884 73.662C45.8831 73.5873 45.6638 73.5173 45.4304 73.452C44.9544 73.2933 44.5904 73.074 44.3384 72.794C44.0864 72.514 43.9604 72.1733 43.9604 71.772C43.9604 71.464 44.0351 71.1793 44.1844 70.918C44.3431 70.6473 44.5718 70.428 44.8704 70.26C45.1784 70.092 45.5564 70.008 46.0044 70.008C46.4058 70.008 46.7651 70.0593 47.0824 70.162C47.3998 70.2553 47.6984 70.414 47.9784 70.638L47.4604 71.45C47.2924 71.2727 47.0918 71.142 46.8584 71.058C46.6251 70.974 46.4151 70.9273 46.2284 70.918C46.0698 70.9087 45.9158 70.932 45.7664 70.988C45.6264 71.044 45.5098 71.1233 45.4164 71.226C45.3231 71.3287 45.2764 71.45 45.2764 71.59C45.2764 71.786 45.3418 71.9447 45.4724 72.066C45.6031 72.1873 45.7711 72.2853 45.9764 72.36C46.1911 72.4253 46.4011 72.4953 46.6064 72.57C46.8958 72.654 47.1524 72.766 47.3764 72.906C47.6004 73.046 47.7778 73.2187 47.9084 73.424C48.0484 73.6293 48.1184 73.886 48.1184 74.194C48.1184 74.5393 48.0344 74.8613 47.8664 75.16C47.7078 75.4493 47.4604 75.6827 47.1244 75.86C46.7978 76.028 46.3778 76.112 45.8644 76.112Z" fill="#F8F5EC"/>
</svg>
